<svg width="194" height="52" viewBox="0 0 194 52" fill="none" xmlns="http://www.w3.org/2000/svg">
<path d="M82.5 19.8008C82.5 20.3802 82.3893 20.9238 82.168 21.4316C81.9466 21.9395 81.6439 22.3854 81.2598 22.7695C80.8822 23.1471 80.4395 23.4466 79.9316 23.668C79.4238 23.8893 78.8802 24 78.3008 24H71.2988V9.99609H78.3008C78.8802 9.99609 79.4238 10.1068 79.9316 10.3281C80.4395 10.5495 80.8822 10.8522 81.2598 11.2363C81.6439 11.6139 81.9466 12.0566 82.168 12.5645C82.3893 13.0723 82.5 13.6159 82.5 14.1953C82.5 14.4557 82.4642 14.7227 82.3926 14.9961C82.321 15.2695 82.2201 15.5332 82.0898 15.7871C81.9596 16.041 81.8034 16.2721 81.6211 16.4805C81.4388 16.6888 81.237 16.8613 81.0156 16.998C81.2435 17.1217 81.4486 17.291 81.6309 17.5059C81.8132 17.7142 81.9694 17.9453 82.0996 18.1992C82.2298 18.4531 82.3275 18.7201 82.3926 19C82.4642 19.2734 82.5 19.5404 82.5 19.8008ZM74.1016 21.1973H78.3008C78.4961 21.1973 78.6784 21.1615 78.8477 21.0898C79.0169 21.0182 79.1634 20.9206 79.2871 20.7969C79.4173 20.6667 79.5182 20.5169 79.5898 20.3477C79.6615 20.1784 79.6973 19.9961 79.6973 19.8008C79.6973 19.6055 79.6615 19.4232 79.5898 19.2539C79.5182 19.0846 79.4173 18.9382 79.2871 18.8145C79.1634 18.6842 79.0169 18.5833 78.8477 18.5117C78.6784 18.4401 78.4961 18.4043 78.3008 18.4043H74.1016V21.1973ZM74.1016 15.6016H78.3008C78.4961 15.6016 78.6784 15.5658 78.8477 15.4941C79.0169 15.4225 79.1634 15.3249 79.2871 15.2012C79.4173 15.071 79.5182 14.9212 79.5898 14.752C79.6615 14.5762 79.6973 14.3906 79.6973 14.1953C79.6973 14 79.6615 13.8177 79.5898 13.6484C79.5182 13.4792 79.4173 13.3327 79.2871 13.209C79.1634 13.0788 79.0169 12.9779 78.8477 12.9062C78.6784 12.8346 78.4961 12.7988 78.3008 12.7988H74.1016V15.6016ZM94.4434 18.6777C94.4434 19.459 94.3034 20.1882 94.0234 20.8652C93.7435 21.5358 93.3626 22.1185 92.8809 22.6133C92.3991 23.1016 91.8327 23.4889 91.1816 23.7754C90.5371 24.0553 89.8438 24.1953 89.1016 24.1953C88.3659 24.1953 87.6725 24.0553 87.0215 23.7754C86.377 23.4889 85.8105 23.1016 85.3223 22.6133C84.8405 22.1185 84.4596 21.5358 84.1797 20.8652C83.8997 20.1882 83.7598 19.459 83.7598 18.6777C83.7598 17.8835 83.8997 17.1478 84.1797 16.4707C84.4596 15.7936 84.8405 15.2109 85.3223 14.7227C85.8105 14.2279 86.377 13.8405 87.0215 13.5605C87.6725 13.2806 88.3659 13.1406 89.1016 13.1406C89.8438 13.1406 90.5371 13.2741 91.1816 13.541C91.8327 13.8014 92.3991 14.1758 92.8809 14.6641C93.3626 15.1458 93.7435 15.7285 94.0234 16.4121C94.3034 17.0892 94.4434 17.8444 94.4434 18.6777ZM91.7578 18.6777C91.7578 18.248 91.6862 17.8607 91.543 17.5156C91.4062 17.1641 91.2174 16.8646 90.9766 16.6172C90.7357 16.3633 90.4525 16.1712 90.127 16.041C89.8079 15.9043 89.4661 15.8359 89.1016 15.8359C88.737 15.8359 88.3919 15.9043 88.0664 16.041C87.7474 16.1712 87.4674 16.3633 87.2266 16.6172C86.9922 16.8646 86.8066 17.1641 86.6699 17.5156C86.5332 17.8607 86.4648 18.248 86.4648 18.6777C86.4648 19.0814 86.5332 19.4557 86.6699 19.8008C86.8066 20.1458 86.9922 20.4453 87.2266 20.6992C87.4674 20.9531 87.7474 21.1549 88.0664 21.3047C88.3919 21.4479 88.737 21.5195 89.1016 21.5195C89.4661 21.5195 89.8079 21.4512 90.127 21.3145C90.4525 21.1777 90.7357 20.9857 90.9766 20.7383C91.2174 20.4909 91.4062 20.1914 91.543 19.8398C91.6862 19.4883 91.7578 19.1009 91.7578 18.6777ZM106.025 18.6777C106.025 19.459 105.885 20.1882 105.605 20.8652C105.326 21.5358 104.945 22.1185 104.463 22.6133C103.981 23.1016 103.415 23.4889 102.764 23.7754C102.119 24.0553 101.426 24.1953 100.684 24.1953C99.9479 24.1953 99.2546 24.0553 98.6035 23.7754C97.959 23.4889 97.3926 23.1016 96.9043 22.6133C96.4225 22.1185 96.0417 21.5358 95.7617 20.8652C95.4818 20.1882 95.3418 19.459 95.3418 18.6777C95.3418 17.8835 95.4818 17.1478 95.7617 16.4707C96.0417 15.7936 96.4225 15.2109 96.9043 14.7227C97.3926 14.2279 97.959 13.8405 98.6035 13.5605C99.2546 13.2806 99.9479 13.1406 100.684 13.1406C101.426 13.1406 102.119 13.2741 102.764 13.541C103.415 13.8014 103.981 14.1758 104.463 14.6641C104.945 15.1458 105.326 15.7285 105.605 16.4121C105.885 17.0892 106.025 17.8444 106.025 18.6777ZM103.34 18.6777C103.34 18.248 103.268 17.8607 103.125 17.5156C102.988 17.1641 102.799 16.8646 102.559 16.6172C102.318 16.3633 102.035 16.1712 101.709 16.041C101.39 15.9043 101.048 15.8359 100.684 15.8359C100.319 15.8359 99.974 15.9043 99.6484 16.041C99.3294 16.1712 99.0495 16.3633 98.8086 16.6172C98.5742 16.8646 98.3887 17.1641 98.252 17.5156C98.1152 17.8607 98.0469 18.248 98.0469 18.6777C98.0469 19.0814 98.1152 19.4557 98.252 19.8008C98.3887 20.1458 98.5742 20.4453 98.8086 20.6992C99.0495 20.9531 99.3294 21.1549 99.6484 21.3047C99.974 21.4479 100.319 21.5195 100.684 21.5195C101.048 21.5195 101.39 21.4512 101.709 21.3145C102.035 21.1777 102.318 20.9857 102.559 20.7383C102.799 20.4909 102.988 20.1914 103.125 19.8398C103.268 19.4883 103.34 19.1009 103.34 18.6777ZM110.186 24H107.5V9.38086H110.186V18.5996L114.16 13.5605H117.227L113.76 17.916L117.227 24H114.16L112.041 20.2012L110.186 22.6621V24ZM117.744 14.1953C117.744 13.6159 117.855 13.0723 118.076 12.5645C118.298 12.0566 118.597 11.6139 118.975 11.2363C119.359 10.8522 119.805 10.5495 120.312 10.3281C120.82 10.1068 121.364 9.99609 121.943 9.99609H128.369V12.7988H121.943C121.748 12.7988 121.566 12.8346 121.396 12.9062C121.227 12.9779 121.077 13.0788 120.947 13.209C120.824 13.3327 120.726 13.4792 120.654 13.6484C120.583 13.8177 120.547 14 120.547 14.1953C120.547 14.3906 120.583 14.5762 120.654 14.752C120.726 14.9212 120.824 15.071 120.947 15.2012C121.077 15.3249 121.227 15.4225 121.396 15.4941C121.566 15.5658 121.748 15.6016 121.943 15.6016H124.746C125.326 15.6016 125.869 15.7122 126.377 15.9336C126.891 16.1484 127.337 16.4479 127.715 16.832C128.099 17.2096 128.398 17.6556 128.613 18.1699C128.835 18.6777 128.945 19.2214 128.945 19.8008C128.945 20.3802 128.835 20.9238 128.613 21.4316C128.398 21.9395 128.099 22.3854 127.715 22.7695C127.337 23.1471 126.891 23.4466 126.377 23.668C125.869 23.8893 125.326 24 124.746 24H118.525V21.1973H124.746C124.941 21.1973 125.124 21.1615 125.293 21.0898C125.462 21.0182 125.609 20.9206 125.732 20.7969C125.863 20.6667 125.964 20.5169 126.035 20.3477C126.107 20.1784 126.143 19.9961 126.143 19.8008C126.143 19.6055 126.107 19.4232 126.035 19.2539C125.964 19.0846 125.863 18.9382 125.732 18.8145C125.609 18.6842 125.462 18.5833 125.293 18.5117C125.124 18.4401 124.941 18.4043 124.746 18.4043H121.943C121.364 18.4043 120.82 18.2936 120.312 18.0723C119.805 17.8509 119.359 17.5514 118.975 17.1738C118.597 16.7897 118.298 16.3438 118.076 15.8359C117.855 15.3216 117.744 14.7747 117.744 14.1953ZM135.576 24C134.932 24 134.326 23.8796 133.76 23.6387C133.193 23.3913 132.695 23.056 132.266 22.6328C131.842 22.2031 131.507 21.7051 131.26 21.1387C131.019 20.5723 130.898 19.9668 130.898 19.3223V16.2168H129.6V13.5605H130.898V9.38086H133.555V13.5605H137.598V16.2168H133.555V19.3223C133.555 19.6022 133.607 19.8659 133.711 20.1133C133.815 20.3542 133.958 20.5658 134.141 20.748C134.323 20.9303 134.538 21.0768 134.785 21.1875C135.033 21.2917 135.296 21.3438 135.576 21.3438H137.598V24H135.576ZM149.209 18.6777C149.209 19.459 149.069 20.1882 148.789 20.8652C148.509 21.5358 148.128 22.1185 147.646 22.6133C147.165 23.1016 146.598 23.4889 145.947 23.7754C145.303 24.0553 144.609 24.1953 143.867 24.1953C143.132 24.1953 142.438 24.0553 141.787 23.7754C141.143 23.4889 140.576 23.1016 140.088 22.6133C139.606 22.1185 139.225 21.5358 138.945 20.8652C138.665 20.1882 138.525 19.459 138.525 18.6777C138.525 17.8835 138.665 17.1478 138.945 16.4707C139.225 15.7936 139.606 15.2109 140.088 14.7227C140.576 14.2279 141.143 13.8405 141.787 13.5605C142.438 13.2806 143.132 13.1406 143.867 13.1406C144.609 13.1406 145.303 13.2741 145.947 13.541C146.598 13.8014 147.165 14.1758 147.646 14.6641C148.128 15.1458 148.509 15.7285 148.789 16.4121C149.069 17.0892 149.209 17.8444 149.209 18.6777ZM146.523 18.6777C146.523 18.248 146.452 17.8607 146.309 17.5156C146.172 17.1641 145.983 16.8646 145.742 16.6172C145.501 16.3633 145.218 16.1712 144.893 16.041C144.574 15.9043 144.232 15.8359 143.867 15.8359C143.503 15.8359 143.158 15.9043 142.832 16.041C142.513 16.1712 142.233 16.3633 141.992 16.6172C141.758 16.8646 141.572 17.1641 141.436 17.5156C141.299 17.8607 141.23 18.248 141.23 18.6777C141.23 19.0814 141.299 19.4557 141.436 19.8008C141.572 20.1458 141.758 20.4453 141.992 20.6992C142.233 20.9531 142.513 21.1549 142.832 21.3047C143.158 21.4479 143.503 21.5195 143.867 21.5195C144.232 21.5195 144.574 21.4512 144.893 21.3145C145.218 21.1777 145.501 20.9857 145.742 20.7383C145.983 20.4909 146.172 20.1914 146.309 19.8398C146.452 19.4883 146.523 19.1009 146.523 18.6777ZM153.35 24H150.684V13.541H151.328L152.207 14.7812C152.637 14.3906 153.125 14.0911 153.672 13.8828C154.219 13.668 154.785 13.5605 155.371 13.5605H157.725V16.2168H155.371C155.091 16.2168 154.827 16.2689 154.58 16.373C154.333 16.4772 154.118 16.6204 153.936 16.8027C153.753 16.985 153.61 17.1999 153.506 17.4473C153.402 17.6947 153.35 17.9583 153.35 18.2383V24ZM162.93 21.4414C163.034 21.474 163.138 21.4967 163.242 21.5098C163.346 21.5163 163.451 21.5195 163.555 21.5195C163.815 21.5195 164.066 21.4837 164.307 21.4121C164.548 21.3405 164.772 21.2396 164.98 21.1094C165.195 20.9727 165.384 20.8099 165.547 20.6211C165.716 20.4258 165.853 20.2109 165.957 19.9766L167.91 21.9395C167.663 22.291 167.376 22.6068 167.051 22.8867C166.732 23.1667 166.383 23.4043 166.006 23.5996C165.635 23.7949 165.241 23.9414 164.824 24.0391C164.414 24.1432 163.991 24.1953 163.555 24.1953C162.819 24.1953 162.126 24.0586 161.475 23.7852C160.83 23.5117 160.264 23.1309 159.775 22.6426C159.294 22.1543 158.913 21.5749 158.633 20.9043C158.353 20.2272 158.213 19.485 158.213 18.6777C158.213 17.8509 158.353 17.0957 158.633 16.4121C158.913 15.7285 159.294 15.1458 159.775 14.6641C160.264 14.1823 160.83 13.8079 161.475 13.541C162.126 13.2741 162.819 13.1406 163.555 13.1406C163.991 13.1406 164.417 13.1927 164.834 13.2969C165.251 13.401 165.645 13.5508 166.016 13.7461C166.393 13.9414 166.745 14.1823 167.07 14.4688C167.396 14.7487 167.682 15.0645 167.93 15.416L162.93 21.4414ZM164.297 15.9434C164.173 15.8978 164.049 15.8685 163.926 15.8555C163.809 15.8424 163.685 15.8359 163.555 15.8359C163.19 15.8359 162.845 15.9043 162.52 16.041C162.201 16.1712 161.921 16.36 161.68 16.6074C161.445 16.8548 161.26 17.1543 161.123 17.5059C160.986 17.8509 160.918 18.2415 160.918 18.6777C160.918 18.7754 160.921 18.8861 160.928 19.0098C160.941 19.1335 160.957 19.2604 160.977 19.3906C161.003 19.5143 161.032 19.6348 161.064 19.752C161.097 19.8691 161.139 19.9733 161.191 20.0645L164.297 15.9434Z" fill="black"/>
<path d="M75.488 41.098C74.5827 41.098 73.7473 40.888 72.982 40.468C72.226 40.0387 71.624 39.446 71.176 38.69C70.7373 37.9247 70.518 37.066 70.518 36.114C70.518 35.162 70.7373 34.308 71.176 33.552C71.624 32.796 72.226 32.208 72.982 31.788C73.7473 31.3587 74.5827 31.144 75.488 31.144C76.4027 31.144 77.238 31.3587 77.994 31.788C78.7593 32.208 79.3613 32.796 79.8 33.552C80.2387 34.308 80.458 35.162 80.458 36.114C80.458 37.066 80.2387 37.9247 79.8 38.69C79.3613 39.446 78.7593 40.0387 77.994 40.468C77.238 40.888 76.4027 41.098 75.488 41.098ZM75.488 39.712C76.132 39.712 76.706 39.5673 77.21 39.278C77.714 38.9793 78.106 38.5593 78.386 38.018C78.6753 37.4673 78.82 36.8327 78.82 36.114C78.82 35.3953 78.6753 34.7653 78.386 34.224C78.106 33.6827 77.714 33.2673 77.21 32.978C76.706 32.6887 76.132 32.544 75.488 32.544C74.844 32.544 74.27 32.6887 73.766 32.978C73.262 33.2673 72.8653 33.6827 72.576 34.224C72.296 34.7653 72.156 35.3953 72.156 36.114C72.156 36.8327 72.296 37.4673 72.576 38.018C72.8653 38.5593 73.262 38.9793 73.766 39.278C74.27 39.5673 74.844 39.712 75.488 39.712ZM85.9205 33.16C86.5272 33.16 87.0685 33.286 87.5445 33.538C88.0298 33.79 88.4078 34.1633 88.6785 34.658C88.9492 35.1527 89.0845 35.75 89.0845 36.45V41H87.5025V36.688C87.5025 35.9973 87.3298 35.47 86.9845 35.106C86.6392 34.7327 86.1678 34.546 85.5705 34.546C84.9732 34.546 84.4972 34.7327 84.1425 35.106C83.7972 35.47 83.6245 35.9973 83.6245 36.688V41H82.0285V33.286H83.6245V34.168C83.8858 33.8507 84.2172 33.6033 84.6185 33.426C85.0292 33.2487 85.4632 33.16 85.9205 33.16ZM92.7163 30.64V41H91.1203V30.64H92.7163ZM95.6237 32.264C95.3344 32.264 95.0917 32.166 94.8957 31.97C94.6997 31.774 94.6017 31.5313 94.6017 31.242C94.6017 30.9527 94.6997 30.71 94.8957 30.514C95.0917 30.318 95.3344 30.22 95.6237 30.22C95.9037 30.22 96.1417 30.318 96.3377 30.514C96.5337 30.71 96.6317 30.9527 96.6317 31.242C96.6317 31.5313 96.5337 31.774 96.3377 31.97C96.1417 32.166 95.9037 32.264 95.6237 32.264ZM96.4077 33.286V41H94.8117V33.286H96.4077ZM102.395 33.16C103.002 33.16 103.543 33.286 104.019 33.538C104.504 33.79 104.882 34.1633 105.153 34.658C105.424 35.1527 105.559 35.75 105.559 36.45V41H103.977V36.688C103.977 35.9973 103.804 35.47 103.459 35.106C103.114 34.7327 102.642 34.546 102.045 34.546C101.448 34.546 100.972 34.7327 100.617 35.106C100.272 35.47 100.099 35.9973 100.099 36.688V41H98.5031V33.286H100.099V34.168C100.36 33.8507 100.692 33.6033 101.093 33.426C101.504 33.2487 101.938 33.16 102.395 33.16ZM114.665 36.954C114.665 37.2433 114.646 37.5047 114.609 37.738H108.715C108.762 38.354 108.99 38.8487 109.401 39.222C109.812 39.5953 110.316 39.782 110.913 39.782C111.772 39.782 112.378 39.4227 112.733 38.704H114.455C114.222 39.4133 113.797 39.9967 113.181 40.454C112.574 40.902 111.818 41.126 110.913 41.126C110.176 41.126 109.513 40.9627 108.925 40.636C108.346 40.3 107.889 39.8333 107.553 39.236C107.226 38.6293 107.063 37.9293 107.063 37.136C107.063 36.3427 107.222 35.6473 107.539 35.05C107.866 34.4433 108.318 33.9767 108.897 33.65C109.485 33.3233 110.157 33.16 110.913 33.16C111.641 33.16 112.29 33.3187 112.859 33.636C113.428 33.9533 113.872 34.4013 114.189 34.98C114.506 35.5493 114.665 36.2073 114.665 36.954ZM112.999 36.45C112.99 35.862 112.78 35.3907 112.369 35.036C111.958 34.6813 111.45 34.504 110.843 34.504C110.292 34.504 109.821 34.6813 109.429 35.036C109.037 35.3813 108.804 35.8527 108.729 36.45H112.999ZM125.08 36.002C125.603 36.0953 126.046 36.3707 126.41 36.828C126.774 37.2853 126.956 37.8033 126.956 38.382C126.956 38.8767 126.826 39.3247 126.564 39.726C126.312 40.118 125.944 40.4307 125.458 40.664C124.973 40.888 124.408 41 123.764 41H119.872V31.27H123.582C124.245 31.27 124.814 31.382 125.29 31.606C125.766 31.83 126.126 32.1333 126.368 32.516C126.611 32.8893 126.732 33.3093 126.732 33.776C126.732 34.336 126.583 34.8027 126.284 35.176C125.986 35.5493 125.584 35.8247 125.08 36.002ZM121.468 35.358H123.442C123.965 35.358 124.371 35.2413 124.66 35.008C124.959 34.7653 125.108 34.42 125.108 33.972C125.108 33.5333 124.959 33.1927 124.66 32.95C124.371 32.698 123.965 32.572 123.442 32.572H121.468V35.358ZM123.624 39.698C124.166 39.698 124.59 39.5673 124.898 39.306C125.206 39.0447 125.36 38.6807 125.36 38.214C125.36 37.738 125.197 37.36 124.87 37.08C124.544 36.8 124.11 36.66 123.568 36.66H121.468V39.698H123.624ZM132.037 41.126C131.309 41.126 130.651 40.9627 130.063 40.636C129.475 40.3 129.013 39.8333 128.677 39.236C128.341 38.6293 128.173 37.9293 128.173 37.136C128.173 36.352 128.345 35.6567 128.691 35.05C129.036 34.4433 129.507 33.9767 130.105 33.65C130.702 33.3233 131.369 33.16 132.107 33.16C132.844 33.16 133.511 33.3233 134.109 33.65C134.706 33.9767 135.177 34.4433 135.523 35.05C135.868 35.6567 136.041 36.352 136.041 37.136C136.041 37.92 135.863 38.6153 135.509 39.222C135.154 39.8287 134.669 40.3 134.053 40.636C133.446 40.9627 132.774 41.126 132.037 41.126ZM132.037 39.74C132.447 39.74 132.83 39.642 133.185 39.446C133.549 39.25 133.843 38.956 134.067 38.564C134.291 38.172 134.403 37.696 134.403 37.136C134.403 36.576 134.295 36.1047 134.081 35.722C133.866 35.33 133.581 35.036 133.227 34.84C132.872 34.644 132.489 34.546 132.079 34.546C131.668 34.546 131.285 34.644 130.931 34.84C130.585 35.036 130.31 35.33 130.105 35.722C129.899 36.1047 129.797 36.576 129.797 37.136C129.797 37.9667 130.007 38.6107 130.427 39.068C130.856 39.516 131.393 39.74 132.037 39.74ZM140.964 41.126C140.236 41.126 139.578 40.9627 138.99 40.636C138.402 40.3 137.94 39.8333 137.604 39.236C137.268 38.6293 137.1 37.9293 137.1 37.136C137.1 36.352 137.273 35.6567 137.618 35.05C137.964 34.4433 138.435 33.9767 139.032 33.65C139.63 33.3233 140.297 33.16 141.034 33.16C141.772 33.16 142.439 33.3233 143.036 33.65C143.634 33.9767 144.105 34.4433 144.45 35.05C144.796 35.6567 144.968 36.352 144.968 37.136C144.968 37.92 144.791 38.6153 144.436 39.222C144.082 39.8287 143.596 40.3 142.98 40.636C142.374 40.9627 141.702 41.126 140.964 41.126ZM140.964 39.74C141.375 39.74 141.758 39.642 142.112 39.446C142.476 39.25 142.77 38.956 142.994 38.564C143.218 38.172 143.33 37.696 143.33 37.136C143.33 36.576 143.223 36.1047 143.008 35.722C142.794 35.33 142.509 35.036 142.154 34.84C141.8 34.644 141.417 34.546 141.006 34.546C140.596 34.546 140.213 34.644 139.858 34.84C139.513 35.036 139.238 35.33 139.032 35.722C138.827 36.1047 138.724 36.576 138.724 37.136C138.724 37.9667 138.934 38.6107 139.354 39.068C139.784 39.516 140.32 39.74 140.964 39.74ZM149.598 37.15L153.154 41H150.998L148.142 37.682V41H146.546V30.64H148.142V36.66L150.942 33.286H153.154L149.598 37.15ZM161.141 41.098C160.487 41.098 159.899 40.986 159.377 40.762C158.854 40.5287 158.443 40.202 158.145 39.782C157.846 39.362 157.697 38.872 157.697 38.312H159.405C159.442 38.732 159.605 39.0773 159.895 39.348C160.193 39.6187 160.609 39.754 161.141 39.754C161.691 39.754 162.121 39.6233 162.429 39.362C162.737 39.0913 162.891 38.746 162.891 38.326C162.891 37.9993 162.793 37.7333 162.597 37.528C162.41 37.3227 162.172 37.164 161.883 37.052C161.603 36.94 161.211 36.8187 160.707 36.688C160.072 36.52 159.554 36.352 159.153 36.184C158.761 36.0067 158.425 35.736 158.145 35.372C157.865 35.008 157.725 34.5227 157.725 33.916C157.725 33.356 157.865 32.866 158.145 32.446C158.425 32.026 158.817 31.704 159.321 31.48C159.825 31.256 160.408 31.144 161.071 31.144C162.013 31.144 162.783 31.382 163.381 31.858C163.987 32.3247 164.323 32.9687 164.389 33.79H162.625C162.597 33.4353 162.429 33.132 162.121 32.88C161.813 32.628 161.407 32.502 160.903 32.502C160.445 32.502 160.072 32.6187 159.783 32.852C159.493 33.0853 159.349 33.4213 159.349 33.86C159.349 34.1587 159.437 34.406 159.615 34.602C159.801 34.7887 160.035 34.938 160.315 35.05C160.595 35.162 160.977 35.2833 161.463 35.414C162.107 35.5913 162.629 35.7687 163.031 35.946C163.441 36.1233 163.787 36.3987 164.067 36.772C164.356 37.136 164.501 37.626 164.501 38.242C164.501 38.7367 164.365 39.2033 164.095 39.642C163.833 40.0807 163.446 40.4353 162.933 40.706C162.429 40.9673 161.831 41.098 161.141 41.098ZM168.246 34.588V38.858C168.246 39.1473 168.311 39.3573 168.442 39.488C168.582 39.6093 168.815 39.67 169.142 39.67H170.122V41H168.862C168.143 41 167.593 40.832 167.21 40.496C166.827 40.16 166.636 39.614 166.636 38.858V34.588H165.726V33.286H166.636V31.368H168.246V33.286H170.122V34.588H168.246ZM174.939 41.126C174.211 41.126 173.553 40.9627 172.965 40.636C172.377 40.3 171.915 39.8333 171.579 39.236C171.243 38.6293 171.075 37.9293 171.075 37.136C171.075 36.352 171.248 35.6567 171.593 35.05C171.938 34.4433 172.41 33.9767 173.007 33.65C173.604 33.3233 174.272 33.16 175.009 33.16C175.746 33.16 176.414 33.3233 177.011 33.65C177.608 33.9767 178.08 34.4433 178.425 35.05C178.77 35.6567 178.943 36.352 178.943 37.136C178.943 37.92 178.766 38.6153 178.411 39.222C178.056 39.8287 177.571 40.3 176.955 40.636C176.348 40.9627 175.676 41.126 174.939 41.126ZM174.939 39.74C175.35 39.74 175.732 39.642 176.087 39.446C176.451 39.25 176.745 38.956 176.969 38.564C177.193 38.172 177.305 37.696 177.305 37.136C177.305 36.576 177.198 36.1047 176.983 35.722C176.768 35.33 176.484 35.036 176.129 34.84C175.774 34.644 175.392 34.546 174.981 34.546C174.57 34.546 174.188 34.644 173.833 34.84C173.488 35.036 173.212 35.33 173.007 35.722C172.802 36.1047 172.699 36.576 172.699 37.136C172.699 37.9667 172.909 38.6107 173.329 39.068C173.758 39.516 174.295 39.74 174.939 39.74ZM182.117 34.406C182.35 34.014 182.658 33.7107 183.041 33.496C183.433 33.272 183.895 33.16 184.427 33.16V34.812H184.021C183.395 34.812 182.919 34.9707 182.593 35.288C182.275 35.6053 182.117 36.156 182.117 36.94V41H180.521V33.286H182.117V34.406ZM192.964 36.954C192.964 37.2433 192.945 37.5047 192.908 37.738H187.014C187.06 38.354 187.289 38.8487 187.7 39.222C188.11 39.5953 188.614 39.782 189.212 39.782C190.07 39.782 190.677 39.4227 191.032 38.704H192.754C192.52 39.4133 192.096 39.9967 191.48 40.454C190.873 40.902 190.117 41.126 189.212 41.126C188.474 41.126 187.812 40.9627 187.224 40.636C186.645 40.3 186.188 39.8333 185.852 39.236C185.525 38.6293 185.362 37.9293 185.362 37.136C185.362 36.3427 185.52 35.6473 185.838 35.05C186.164 34.4433 186.617 33.9767 187.196 33.65C187.784 33.3233 188.456 33.16 189.212 33.16C189.94 33.16 190.588 33.3187 191.158 33.636C191.727 33.9533 192.17 34.4013 192.488 34.98C192.805 35.5493 192.964 36.2073 192.964 36.954ZM191.298 36.45C191.288 35.862 191.078 35.3907 190.668 35.036C190.257 34.6813 189.748 34.504 189.142 34.504C188.591 34.504 188.12 34.6813 187.728 35.036C187.336 35.3813 187.102 35.8527 187.028 36.45H191.298Z" fill="black" fill-opacity="0.48"/>
<rect width="61" height="52" rx="26" fill="#F47266"/>
<path d="M26.5789 12.885C23.9446 11.6345 20.2626 11.022 15.3331 11.0003C14.8682 10.994 14.4125 11.1288 14.0266 11.3866C13.7099 11.5995 13.4506 11.8864 13.2716 12.2223C13.0926 12.5581 12.9993 12.9326 13 13.3126V34.0516C13 35.4535 14.0033 36.5112 15.3331 36.5112C20.5149 36.5112 25.7127 36.9925 28.826 39.9181C28.8686 39.9583 28.9221 39.9852 28.9799 39.9954C29.0377 40.0056 29.0973 39.9987 29.1512 39.9755C29.2051 39.9524 29.251 39.914 29.2831 39.8651C29.3153 39.8162 29.3323 39.759 29.332 39.7007V15.264C29.3321 15.0992 29.2966 14.9362 29.2279 14.7861C29.1593 14.6361 29.059 14.5024 28.9339 14.3942C28.2207 13.7881 27.4286 13.2804 26.5789 12.885ZM46.9705 11.3845C46.5844 11.1272 46.1286 10.9932 45.6639 11.0003C40.7345 11.022 37.0525 11.6316 34.4182 12.885C33.5685 13.2797 32.7762 13.7863 32.0625 14.3913C31.9376 14.4997 31.8376 14.6334 31.7691 14.7834C31.7005 14.9335 31.6651 15.0964 31.6651 15.2611V39.6992C31.6651 39.7553 31.6817 39.8102 31.7129 39.8569C31.7441 39.9037 31.7885 39.9402 31.8405 39.962C31.8926 39.9837 31.9499 39.9897 32.0053 39.9792C32.0608 39.9687 32.1118 39.9422 32.1522 39.9029C34.0238 38.0544 37.3084 36.509 45.6669 36.5097C46.2856 36.5097 46.8791 36.2653 47.3166 35.8303C47.7542 35.3953 48 34.8053 48 34.1901V13.3134C48.0008 12.9325 47.9074 12.5574 47.7278 12.2209C47.5483 11.8845 47.2882 11.5972 46.9705 11.3845Z" fill="white"/>
</svg>
