<svg width="23" height="24" viewBox="0 0 23 24" fill="none" xmlns="http://www.w3.org/2000/svg">
<path fill-rule="evenodd" clip-rule="evenodd" d="M10.2309 2.51113C8.15597 2.51113 6.166 3.37128 4.69877 4.90235C3.23155 6.43342 2.40728 8.50999 2.40728 10.6753C2.40728 12.8405 3.23155 14.9171 4.69877 16.4482C6.166 17.9792 8.15597 18.8394 10.2309 18.8394C12.3059 18.8394 14.2959 17.9792 15.7631 16.4482C17.2303 14.9171 18.0546 12.8405 18.0546 10.6753C18.0546 8.50999 17.2303 6.43342 15.7631 4.90235C14.2959 3.37128 12.3059 2.51113 10.2309 2.51113ZM2.30722e-08 10.6753C0.00013901 8.97284 0.390418 7.29514 1.13827 5.78213C1.88613 4.26912 2.96988 2.96467 4.2991 1.97762C5.62833 0.990567 7.16448 0.349534 8.7794 0.107999C10.3943 -0.133535 12.0412 0.0314335 13.5826 0.589142C15.124 1.14685 16.5152 2.08113 17.6402 3.31402C18.7652 4.54692 19.5914 6.04269 20.0497 7.67653C20.5081 9.31037 20.5854 11.0349 20.2752 12.7063C19.965 14.3776 19.2762 15.9473 18.2664 17.2844L22.6621 21.8714C22.8814 22.1083 23.0027 22.4256 23 22.7549C22.9972 23.0842 22.8706 23.3992 22.6475 23.6321C22.4243 23.865 22.1224 23.9971 21.8068 24C21.4912 24.0028 21.1872 23.8762 20.9602 23.6474L16.5645 19.0604C15.0559 20.3014 13.2429 21.074 11.3331 21.29C9.42335 21.506 7.49388 21.1565 5.76555 20.2816C4.03721 19.4067 2.57983 18.0417 1.5602 16.3428C0.540562 14.6439 -0.000128962 12.6798 2.30722e-08 10.6753ZM9.0273 6.27919C9.0273 5.94607 9.15411 5.6266 9.37983 5.39105C9.60556 5.1555 9.91171 5.02317 10.2309 5.02317C11.6674 5.02317 13.0451 5.61865 14.0609 6.67863C15.0767 7.7386 15.6473 9.17623 15.6473 10.6753C15.6473 11.0084 15.5205 11.3278 15.2948 11.5634C15.069 11.7989 14.7629 11.9313 14.4437 11.9313C14.1244 11.9313 13.8183 11.7989 13.5926 11.5634C13.3668 11.3278 13.24 11.0084 13.24 10.6753C13.24 9.84246 12.923 9.04378 12.3587 8.45491C11.7944 7.86603 11.029 7.53521 10.2309 7.53521C9.91171 7.53521 9.60556 7.40288 9.37983 7.16733C9.15411 6.93178 9.0273 6.61231 9.0273 6.27919Z" fill="#FB635D"/>
</svg>
